<?xml version="1.0" standalone="no"?>
<!DOCTYPE svg PUBLIC "-//W3C//DTD SVG 1.0//EN" "http://www.w3.org/TR/2001/REC-SVG-20010904/DTD/svg10.dtd">
<svg xmlns="http://www.w3.org/2000/svg" xmlns:xlink="http://www.w3.org/1999/xlink" id="body_1" width="40" height="40">

<g transform="matrix(0.0390625 0 0 0.0390625 0 0)">
    <path d="M482.5 437.47L541.5 437.47L541.5 753.32L482.5 753.32L482.5 437.47z" stroke="none" fill="#000000" fill-rule="nonzero" />
    <path d="M512 0C 229.23 0 0 229.23 0 512C 0 794.77 229.23 1024 512 1024C 794.77 1024 1024 794.77 1024 512C 1024 229.22998 794.77 0 512 0zM512 964C 262.37 964 60 761.63 60 512C 60 262.37 262.37 60 512 60C 761.63 60 964 262.37 964 512C 964 761.63 761.63 964 512 964z" stroke="none" fill="#000000" fill-rule="nonzero" />
    <path d="M474.5 317.84C 474.5 331.23746 481.64746 343.61722 493.25 350.31595C 504.85254 357.01468 519.14746 357.01468 530.75 350.31595C 542.35254 343.61722 549.5 331.23746 549.5 317.84C 549.5 304.44254 542.35254 292.06277 530.75 285.36404C 519.14746 278.6653 504.85254 278.6653 493.25 285.36404C 481.64746 292.06277 474.5 304.44254 474.5 317.84z" stroke="none" fill="#000000" fill-rule="nonzero" />
</g>
</svg>