<?xml version="1.0" standalone="no"?><!DOCTYPE svg PUBLIC "-//W3C//DTD SVG 1.1//EN" "http://www.w3.org/Graphics/SVG/1.1/DTD/svg11.dtd"><svg t="1705755766026" class="icon" viewBox="0 0 1024 1024" version="1.1" xmlns="http://www.w3.org/2000/svg" p-id="925" xmlns:xlink="http://www.w3.org/1999/xlink" width="200" height="200"><path d="M170 216m-56 0a56 56 0 1 0 112 0 56 56 0 1 0-112 0Z" fill="#000000" p-id="926"></path><path d="M170 808m-56 0a56 56 0 1 0 112 0 56 56 0 1 0-112 0Z" fill="#000000" p-id="927"></path><path d="M170 512m-56 0a56 56 0 1 0 112 0 56 56 0 1 0-112 0Z" fill="#000000" p-id="928"></path><path d="M286 168m8 0l609 0q8 0 8 8l0 80q0 8-8 8l-609 0q-8 0-8-8l0-80q0-8 8-8Z" fill="#000000" p-id="929"></path><path d="M286 760m8 0l609 0q8 0 8 8l0 80q0 8-8 8l-609 0q-8 0-8-8l0-80q0-8 8-8Z" fill="#000000" p-id="930"></path><path d="M286 464m8 0l609 0q8 0 8 8l0 80q0 8-8 8l-609 0q-8 0-8-8l0-80q0-8 8-8Z" fill="#000000" p-id="931"></path></svg>