<?xml version="1.0" standalone="no"?><!DOCTYPE svg PUBLIC "-//W3C//DTD SVG 1.1//EN" "http://www.w3.org/Graphics/SVG/1.1/DTD/svg11.dtd"><svg t="1705635865496" class="icon" viewBox="0 0 1024 1024" version="1.1" xmlns="http://www.w3.org/2000/svg" p-id="1064" xmlns:xlink="http://www.w3.org/1999/xlink" width="200" height="200"><path d="M482.5 437.47h59v315.85h-59z" p-id="1065"></path><path d="M512 0C229.23 0 0 229.23 0 512s229.23 512 512 512 512-229.23 512-512S794.77 0 512 0z m0 964C262.37 964 60 761.63 60 512S262.37 60 512 60s452 202.37 452 452-202.37 452-452 452z" p-id="1066"></path><path d="M512 317.84m-37.5 0a37.5 37.5 0 1 0 75 0 37.5 37.5 0 1 0-75 0Z" p-id="1067"></path></svg>